
        <svg xmlns="http://www.w3.org/2000/svg" xmlns:xlink="http://www.w3.org/1999/xlink" version="1.1" width="3187.5" height="648.7500071525574" viewBox="0 0 3187.5 648.7500071525574">
			
			<g transform="scale(9.375) translate(10, 10)">
				<defs id="SvgjsDefs3292"><linearGradient id="SvgjsLinearGradient3297"><stop id="SvgjsStop3298" stop-color="#8f5e25" offset="0"/><stop id="SvgjsStop3299" stop-color="#fbf4a1" offset="0.5"/><stop id="SvgjsStop3300" stop-color="#8f5e25" offset="1"/></linearGradient><linearGradient id="SvgjsLinearGradient3301"><stop id="SvgjsStop3302" stop-color="#8f5e25" offset="0"/><stop id="SvgjsStop3303" stop-color="#fbf4a1" offset="0.5"/><stop id="SvgjsStop3304" stop-color="#8f5e25" offset="1"/></linearGradient></defs><g id="SvgjsG3293" featureKey="symbolFeature-0" transform="matrix(2,0,0,2,0,-25.39999771118164)" fill="#000"><path xmlns="http://www.w3.org/2000/svg" d="M37.7,12.7c-2.1,0-4.1,0.5-5.9,1.5c-1,0.6-1.9,1.3-2.7,2.1L25,20.4l-4.1-4.1c-0.8-0.8-1.7-1.5-2.7-2.1  c-1.8-1-3.9-1.5-5.9-1.5C5.5,12.7,0,18.2,0,25c0,6.8,5.5,12.3,12.3,12.3c2.1,0,4.1-0.5,5.9-1.5c1-0.6,1.9-1.2,2.7-2.1l4.1-4.1  l4.1,4.1c0.8,0.8,1.7,1.5,2.7,2.1c1.8,1,3.9,1.5,5.9,1.5C44.5,37.3,50,31.8,50,25C50,18.2,44.5,12.7,37.7,12.7z M16.3,29.1  c-0.4,0.4-0.8,0.7-1.3,1c-0.9,0.5-1.8,0.7-2.8,0.7c-3.2,0-5.7-2.6-5.7-5.7s2.6-5.7,5.7-5.7c1,0,1.9,0.2,2.8,0.7  c0.5,0.3,0.9,0.6,1.3,1l4.1,4.1L16.3,29.1z M37.7,30.7c-1,0-1.9-0.2-2.8-0.7c-0.5-0.3-0.9-0.6-1.3-1L29.6,25l4.1-4.1  c0.4-0.4,0.8-0.7,1.3-1c0.9-0.5,1.8-0.7,2.8-0.7c3.2,0,5.7,2.6,5.7,5.7C43.5,28.2,40.9,30.7,37.7,30.7z"/></g><g id="SvgjsG3294" featureKey="nameFeature-0" transform="matrix(2.4727990594187172,0,0,2.4727990594187172,118.26903995093342,-7.243318431740695)" fill="#000"><path d="M5.78 5.76 c2.46 0 4.02 1.54 4.76 2.9 l-2.16 1.28 c-0.76 -1.06 -1.5 -1.6 -2.6 -1.6 c-0.98 0 -1.7 0.58 -1.7 1.38 s0.46 1.22 1.56 1.62 l0.96 0.34 c3.1 1.1 4.32 2.48 4.32 4.4 c0 2.82 -2.68 4.22 -5.06 4.22 c-2.52 0 -4.48 -1.5 -5.16 -3.46 l2.24 -1.18 c0.5 1.02 1.34 2 2.92 2 c1.14 0 2.02 -0.5 2.02 -1.54 c0 -1 -0.6 -1.44 -2.12 -2.02 l-0.86 -0.3 c-2.06 -0.74 -3.72 -1.76 -3.72 -4.2 c0 -2.24 2.1 -3.84 4.6 -3.84 z M21.72 6 l0 2.68 l-3.48 0 l0 11.32 l-2.92 0 l0 -11.32 l-3.5 0 l0 -2.68 l9.9 0 z M30.680000000000003 5.800000000000001 c3.9 0 7.26 2.94 7.26 7.2 s-3.36 7.2 -7.26 7.2 s-7.26 -2.94 -7.26 -7.2 s3.36 -7.2 7.26 -7.2 z M30.680000000000003 17.46 c2.36 0 4.22 -1.86 4.22 -4.46 s-1.86 -4.46 -4.22 -4.46 s-4.22 1.86 -4.22 4.46 s1.86 4.46 4.22 4.46 z M51.06 20 l-3.1 0 l-2.98 -4.66 l-0.04 0 l-1.98 0 l0 4.66 l-2.92 0 l0 -14 l4.9 0 c3.14 0 5.18 1.9 5.18 4.76 c0 1.9 -0.92 3.32 -2.48 4.04 z M42.96 8.68 l0 4.14 l1.8 0 c1.44 0 2.44 -0.56 2.44 -2.06 c0 -1.48 -1 -2.08 -2.44 -2.08 l-1.8 0 z M59.82000000000001 5.800000000000001 c3.9 0 7.26 2.94 7.26 7.2 s-3.36 7.2 -7.26 7.2 s-7.26 -2.94 -7.26 -7.2 s3.36 -7.2 7.26 -7.2 z M59.82000000000001 17.46 c2.36 0 4.22 -1.86 4.22 -4.46 s-1.86 -4.46 -4.22 -4.46 s-4.22 1.86 -4.22 4.46 s1.86 4.46 4.22 4.46 z M81.58 20 l-3.44 0 l-3.02 -4.5 l-3 4.5 l-3.44 0 l4.7 -7.08 l-4.64 -6.92 l3.44 0 l2.92 4.34 l2.88 -4.34 l3.44 0 l-4.6 6.92 z"/></g>
			</g>
		</svg>
	